Coordinates
version=1
nRows=17
nColumns=36
inDegrees=yes

Units are S.I. units (second, meters, Newtons, ...)
If the header above contains a line with 'inDegrees', this indicates whether rotational values are in degrees (yes) or radians (no).

endheader
time	pelvis_tilt	pelvis_list	pelvis_rotation	pelvis_tx	pelvis_ty	pelvis_tz	hip_flexion_r	hip_adduction_r	hip_rotation_r	knee_angle_r	knee_angle_r_beta	ankle_angle_r	subtalar_angle_r	mtp_angle_r	hip_flexion_l	hip_adduction_l	hip_rotation_l	knee_angle_l	knee_angle_l_beta	ankle_angle_l	subtalar_angle_l	mtp_angle_l	lumbar_extension	lumbar_bending	lumbar_rotation	arm_flex_r	arm_add_r	arm_rot_r	elbow_flex_r	pro_sup_r	arm_flex_l	arm_add_l	arm_rot_l	elbow_flex_l	pro_sup_l
      3.81355930	    -13.35387412	      3.59903254	     -0.77646071	     -0.30832147	      1.42681097	     -0.03476647	     26.47772656	     -4.62802965	    -11.64681797	      9.39908850	      0.16404504	    -39.27334374	    -10.73166579	     -7.49999987	     30.91808634	      1.38715315	     -5.85541903	     17.81649397	      0.31095648	    -32.60021424	     -7.28338943	     -7.49999987	    -18.47692592	     -1.32778715	      4.17208369	    -43.56793289	    -41.52515963	     -6.37369437	     40.77792313	     70.47241801	    -55.73585959	    -47.97599151	    -23.14428632	     65.25295251	     76.02915003
      3.83050850	    -13.39140628	      3.97578863	     -0.51616476	     -0.28374026	      1.40256513	     -0.04665317	     28.00131770	     -5.52866703	    -14.02302265	      7.74635921	      0.13519947	    -40.02999030	    -10.16433765	     -7.49999987	     32.13327971	      1.83738095	     -7.31554881	     15.86590006	      0.27691219	    -34.19357581	     -7.74770600	     -7.49999987	    -19.41278690	     -0.81439062	      4.26176155	    -50.97757585	    -36.60591922	    -10.03575324	     39.37750903	     69.31853668	    -56.44819368	    -44.17717444	    -13.95795910	     57.73666338	     70.88064647
      3.84745760	    -12.58937328	      3.75062928	     -1.91364734	     -0.26105971	      1.37667320	     -0.04412077	     29.70022799	     -5.34719601	    -15.90664311	      8.31462486	      0.14511758	    -39.09955813	    -10.27259652	     -7.49999987	     32.30918630	      1.36488990	     -8.36778230	     14.73425739	      0.25716130	    -33.33880173	     -8.84261016	     -7.49999987	    -20.49046576	     -0.44536950	      5.25542863	    -55.65526463	    -34.17095129	    -13.49562798	     38.37374611	     69.58602131	    -56.15711428	    -38.17237268	     -6.14675962	     49.87010129	     62.16138627
      3.86440680	    -12.03637399	      4.49520628	     -2.91728150	     -0.24348947	      1.34591698	     -0.04141332	     31.31744760	     -5.90972721	    -17.36984452	      7.85241432	      0.13705048	    -39.32481907	    -11.51656484	     -7.49999987	     32.53769277	      1.60074409	     -8.50187739	     13.34687696	      0.23294695	    -34.73663880	     -8.90993462	     -7.49999987	    -21.89444762	     -1.41318009	      6.91186472	    -60.64823448	    -30.32519196	    -21.02274055	     40.67327997	     69.58499700	    -55.05314588	    -36.11613947	     -2.70559980	     45.55269569	     60.20248770
      3.88135590	    -11.78650210	      4.49205470	     -2.99713868	     -0.21936911	      1.31510278	     -0.03097093	     32.05766273	     -5.56399188	    -18.30839017	      6.06247980	      0.10581023	    -37.87053475	    -11.47392552	     -7.49999987	     32.86878194	      0.84631119	    -10.12824399	     11.61557717	      0.20273007	    -33.39877725	     -7.61853545	     -7.49999987	    -22.54921000	     -2.21522611	      6.71080121	    -60.67801354	    -27.54187497	    -25.42626175	     38.72723392	     69.39532351	    -54.93187805	    -33.93676934	     -3.19806005	     42.19220843	     58.90332636
      3.89830510	    -11.07544528	      4.77285730	     -3.71342820	     -0.20663947	      1.27712358	     -0.03274525	     33.02183816	     -5.96145970	    -18.71428143	      5.76562602	      0.10062916	    -37.31633471	    -10.96238625	     -7.49999987	     33.15257226	      0.27811978	    -11.49011728	      9.82374284	      0.17145666	    -33.16036968	     -4.68201001	     -7.49999987	    -23.95648101	     -2.74399166	      8.03948333	    -64.06131950	    -23.41866086	    -34.72964151	     45.39605802	     72.56622810	    -53.06743270	    -34.91769796	     -0.34942813	     40.98949499	     55.93220890
      3.91525420	    -10.94019040	      4.09264970	     -3.97445569	     -0.17708435	      1.24623552	     -0.03882381	     33.36706912	     -5.58692987	    -18.68311548	      5.00277470	      0.08731489	    -35.96123290	    -10.17990059	     -7.49999987	     33.11122803	     -0.48253835	    -11.47186517	      7.94535307	      0.13867257	    -33.94308038	     -3.98685248	     -7.49999987	    -25.21102483	     -2.06935941	      8.21306741	    -61.97510382	    -19.46848588	    -46.23893930	     46.94438905	     77.83475180	    -53.15541662	    -32.74695709	     -3.59914904	     42.19781563	     57.30506194
      3.93220340	    -10.42764592	      4.02759448	     -4.04740657	     -0.14502177	      1.19975741	     -0.03275518	     33.49102512	     -5.71579357	    -18.80479221	      5.16206728	      0.09009507	    -34.70580387	    -11.46600239	     -7.49999987	     33.20194194	     -1.48773853	    -12.65717048	      8.28908405	      0.14467181	    -33.36078519	     -3.09324839	     -7.49999987	    -26.24184827	     -1.17705473	      8.98309943	    -63.64776979	    -13.50329241	    -54.62320566	     53.69732778	     80.89070203	    -50.53378472	    -32.07954242	     -3.76365835	     40.83341450	     59.98826085
      3.94915250	    -10.21682187	      3.46972196	     -4.60027755	     -0.12970152	      1.15856867	     -0.02809429	     33.93159957	     -5.23603194	    -17.22779190	      6.24251238	      0.10895239	    -34.66289870	    -12.43626667	     -7.49999987	     33.77446120	     -2.92479949	    -12.58577940	      9.31240997	      0.16253222	    -31.07434023	     -2.41781655	     -7.49999987	    -26.74843858	     -0.03006653	      9.50414799	    -61.02693284	     -7.30425882	    -67.86254439	     61.63868232	     90.62149857	    -48.66798776	    -30.54008408	     -5.84978582	     41.78530715	     67.63536985
      3.96610170	     -9.68156050	      2.79640392	     -4.87569589	     -0.10221217	      1.12735335	     -0.02633946	     33.40243209	     -4.94639729	    -16.94789908	      7.58153392	      0.13232273	    -33.45619239	    -12.51134724	     -7.49999987	     33.38585464	     -4.33254343	    -12.84402446	      9.71852909	      0.16962033	    -31.47190700	     -3.01998876	     -7.49999987	    -26.23835870	      1.19091522	      7.74354886	    -53.40138332	     -2.99876784	    -79.42638891	     71.21996014	     93.09383248	    -47.00018421	    -26.72810378	     -9.98317462	     41.68084432	     70.63069656
      3.98305090	     -8.73909167	      2.14190533	     -5.34652443	     -0.06599850	      1.07831191	     -0.03385229	     32.53859309	     -4.81012980	    -15.17246306	     10.19492290	      0.17793497	    -33.24456351	    -11.33251286	     -7.49999987	     32.59924596	     -5.61713135	    -13.00428088	     11.68854630	      0.20400362	    -30.48909241	     -3.49789331	     -7.49999987	    -24.92536571	      0.44606901	      1.60429275	    -43.59563167	     -6.74031855	    -82.47422143	     71.53539492	    105.93607986	    -51.53426742	    -16.53821898	    -26.23876517	     45.26767993	     91.65569416
      4.00000000	     -8.32315704	      1.44068294	     -5.15787174	     -0.04664155	      1.03406733	     -0.03697192	     32.56599583	     -4.88243434	    -12.90494763	     12.87324549	      0.22468052	    -29.66557838	    -11.03276234	     -7.49999987	     33.35731610	     -5.92115261	    -11.00190205	     15.07343453	      0.26308106	    -28.20336524	     -3.93415729	     -7.49999987	    -24.24937063	      1.33662323	      0.80045636	    -41.64752620	     -7.62119451	    -74.81132194	     70.61750280	    104.33854410	    -48.50823470	    -13.59778367	    -27.12794385	     46.47623692	     92.12793684
      4.01694920	     -7.88175351	      0.71068008	     -5.32489193	     -0.03822427	      0.98606413	     -0.02757428	     34.27992930	     -4.20579573	    -10.96592624	     18.57545885	      0.32420292	    -21.36816505	    -13.96395257	     -7.49999987	     35.38834871	     -7.29786929	    -10.08082476	     20.82914249	      0.36353712	    -19.69606818	     -2.48547696	     -7.49999987	    -24.69494615	      0.97797793	      0.31647645	    -39.41742787	    -11.13380253	    -59.57783307	     63.80498818	    104.40197272	    -46.50852265	    -10.73117827	    -34.03021511	     49.50708401	    102.22357510
      4.03389830	     -8.48227311	     -0.15265924	     -5.52131068	     -0.01698318	      0.94467564	     -0.02706030	     40.11510170	     -2.97001014	     -7.32624353	     29.71970032	      0.51870662	    -13.60299308	    -22.74418711	     -7.49999987	     40.15530666	     -8.37499825	     -8.32172442	     30.72090240	      0.53618090	     -9.41185114	     -5.36545543	     -7.49999987	    -24.01360471	      1.81420025	      2.26593616	    -35.88041460	    -13.09173389	    -48.19561459	     54.01655723	    100.22369136	    -40.76527160	    -12.28390949	    -28.57477476	     45.82376035	     98.92306891
      4.05084750	     -8.46218331	     -0.76399611	     -5.35749277	     -0.00328747	      0.92609285	     -0.03375788	     46.80213782	     -2.88605340	     -5.66113996	     43.80818713	      0.76459710	     -6.23395369	    -28.08184298	     -7.49999987	     46.05023819	     -8.44600536	     -5.34770540	     43.14788869	      0.75307272	     -0.62062888	    -10.36127939	     -7.49999987	    -24.10407536	      1.31671599	     -1.07930822	    -24.59700409	    -17.16898073	    -29.00346852	     41.33515241	     99.99354604	    -36.16167751	     -8.79069228	    -31.32476594	     43.94357777	    103.55471405
      4.06779660	     -7.07676096	     -0.66956407	     -4.35404397	      0.00996541	      0.90852802	     -0.04328356	     51.56851496	     -3.62807744	     -3.55768433	     56.13276746	      0.97970161	     -0.19179005	    -30.97722475	     -7.49999987	     50.02957720	     -7.01031093	     -3.49803887	     53.98696108	      0.94225022	      5.89089772	    -13.67114905	     -7.49999987	    -25.13774200	      2.25251139	      0.26531685	    -16.62101873	    -17.79429102	    -16.66963070	     29.30128975	     97.40836021	    -23.74313280	    -10.37044632	    -25.54071032	     30.87457304	    101.83909525
      4.08474580	     -4.36835332	     -0.45214274	     -3.51615210	      0.01343542	      0.88405439	     -0.04670921	     53.03898398	     -4.77328366	     -2.62134647	     64.29578211	      1.12217309	      4.41704564	    -31.72227331	     -7.49999987	     51.95090911	     -5.02427013	     -1.19903764	     62.99194311	      1.09941681	      9.78263312	    -17.03968673	     -7.49999987	    -28.76466102	      2.84958941	      3.24269144	    -10.55321594	    -16.45461673	     -8.91013738	     23.43884142	     91.64948057	    -10.38765864	    -10.34798142	    -18.71705284	     21.50866397	     96.62303543
